<?xml version="1.0" encoding="UTF-8" standalone="no"?>
<!-- Created with Inkscape (http://www.inkscape.org/) -->

<svg
   width="100%"
   height="100%"
   viewBox="0 0 158 270"
   version="1.1"
   id="svg827"
   inkscape:version="1.1.2 (0a00cf5339, 2022-02-04)"
   sodipodi:docname="css-flexbox.svg"
   xmlns:inkscape="http://www.inkscape.org/namespaces/inkscape"
   xmlns:sodipodi="http://sodipodi.sourceforge.net/DTD/sodipodi-0.dtd"
   xmlns="http://www.w3.org/2000/svg"
   xmlns:svg="http://www.w3.org/2000/svg">
  <style>
     .inner {
       fill: violet;
       stroke: purple;
       stroke-width: 1px;
     }
     .container {
        fill: #eee;
        stroke: #aaa;
        stroke-width: 1px;
     }
     .spacer {
        fill: yellow;
        stroke: orange;
        stroke-width: 1px;
     }
     text {
        text-anchor: middle;
	font-style:normal;
        font-weight:bold;
        font-size:6px;
        line-height:1.25;
        font-family:sans-serif;
        letter-spacing:1px;
        word-spacing:0px;
        fill:#black;
        fill-opacity:1;
        stroke:none;
  </style>
  <g
     id="container"
     transform="translate(10,10)">
    <rect
       class="container"
       width="138"
       height="250"
       x="0"
       y="0"
    />
    <g
       id="inbetween"
       transform="translate(0,10)">
      <text
         xml:space="preserve"
         x="69"
         y="0"
         id="text_between">space-between</text>
      <rect
         class="spacer"
         width="24"
         height="24"
         x="30"
         y="3"
      />
      <rect
         class="spacer"
         width="24"
         height="24"
         x="84"
         y="3"
      />
      <rect
         class="inner"
         width="30"
         height="20"
         x="0"
         y="5"
         rx="4"
      />
      <rect
         class="inner"
         width="30"
         height="20"
         x="54"
         y="5"
         rx="4"
      />
      <rect
         class="inner"
         width="30"
         height="20"
         x="108"
         y="5"
         rx="4"
      />
    </g>
    <g
       id="arround"
       transform="translate(0,45)">
      <text
         xml:space="preserve"
         x="69"
         y="0"
         id="text_arround">space-arround</text>
      <rect
         class="spacer"
         width="8"
         height="24"
         x="0"
         y="3"
      />
      <rect
         class="spacer"
         width="8"
         height="24"
         x="38"
         y="3"
      />
      <rect
         class="spacer"
         width="8"
         height="24"
         x="46"
         y="3"
      />
      <rect
         class="spacer"
         width="8"
         height="24"
         x="84"
         y="3"
      />
      <rect
         class="spacer"
         width="8"
         height="24"
         x="92"
         y="3"
      />
      <rect
         class="spacer"
         width="8"
         height="24"
         x="130"
         y="3"
      />
      <rect
         class="inner"
         width="30"
         height="20"
         x="8"
         y="5"
         rx="4"
      />
      <rect
         class="inner"
         width="30"
         height="20"
         x="54"
         y="5"
         rx="4"
      />
      <rect
         class="inner"
         width="30"
         height="20"
         x="100"
         y="5"
         rx="4"
      />
    </g>
    <g
       id="evenly"
       transform="translate(0,80)">
      <text
         xml:space="preserve"
         x="69"
         y="0"
         id="text_evenly">space-evenly</text>
      <rect
         class="spacer"
         width="12"
         height="24"
         x="0"
         y="3"
      />
      <rect
         class="spacer"
         width="12"
         height="24"
         x="42"
         y="3"
      />
      <rect
         class="spacer"
         width="12"
         height="24"
         x="84"
         y="3"
      />
      <rect
         class="spacer"
         width="12"
         height="24"
         x="126"
         y="3"
      />
      <rect
         class="inner"
         width="30"
         height="20"
         x="12"
         y="5"
         rx="4"
      />
      <rect
         class="inner"
         width="30"
         height="20"
         x="54"
         y="5"
         rx="4"
      />
      <rect
         class="inner"
         width="30"
         height="20"
         x="96"
         y="5"
         rx="4"
      />
    </g>
    <g
       id="center"
       transform="translate(0,115)">
      <text
         xml:space="preserve"
         x="69"
         y="0"
         id="text_center">center</text>
      <rect
         class="spacer"
         width="24"
         height="24"
         x="0"
         y="3"
      />
      <rect
         class="spacer"
         width="24"
         height="24"
         x="114"
         y="3"
      />
      <rect
         class="inner"
         width="30"
         height="20"
         x="24"
         y="5"
         rx="4"
      />
      <rect
         class="inner"
         width="30"
         height="20"
         x="54"
         y="5"
         rx="4"
      />
      <rect
         class="inner"
         width="30"
         height="20"
         x="84"
         y="5"
         rx="4"
      />
    </g>
    <g
       id="start"
       transform="translate(0,150)">
      <text
         xml:space="preserve"
         x="69"
         y="0"
         id="text_start">flex-start</text>
      <rect
         class="spacer"
         width="48"
         height="24"
         x="90"
         y="3"
      />
      <rect
         class="inner"
         width="30"
         height="20"
         x="0"
         y="5"
         rx="4"
      />
      <rect
         class="inner"
         width="30"
         height="20"
         x="30"
         y="5"
         rx="4"
      />
      <rect
         class="inner"
         width="30"
         height="20"
         x="60"
         y="5"
         rx="4"
      />
    </g>
    <g
       id="end"
       transform="translate(0,185)">
      <text
         xml:space="preserve"
         x="69"
         y="0"
         id="text_end">flex-end</text>
      <rect
         class="spacer"
         width="48"
         height="24"
         x="0"
         y="3"
      />
      <rect
         class="inner"
         width="30"
         height="20"
         x="48"
         y="5"
         rx="4"
      />
      <rect
         class="inner"
         width="30"
         height="20"
         x="78"
         y="5"
         rx="4"
      />
      <rect
         class="inner"
         width="30"
         height="20"
         x="108"
         y="5"
         rx="4"
      />
    </g>
    <g
       id="stretch"
       transform="translate(0,220)">
      <text
         xml:space="preserve"
         x="69"
         y="0"
         id="text_stretch">stretch</text>
      <rect
         class="inner"
         width="46"
         height="20"
         x="0"
         y="5"
         rx="4"
      />
      <rect
         class="inner"
         width="46"
         height="20"
         x="46"
         y="5"
         rx="4"
      />
      <rect
         class="inner"
         width="46"
         height="20"
         x="92"
         y="5"
         rx="4"
      />
    </g>
  </g>
</svg>
