<?xml version="1.0" standalone="no"?>
<!DOCTYPE svg PUBLIC "-//W3C//DTD SVG 20010904//EN"
 "http://www.w3.org/TR/2001/REC-SVG-20010904/DTD/svg10.dtd">
<svg version="1.0" xmlns="http://www.w3.org/2000/svg"
 width="70.000000pt" height="46.000000pt" viewBox="0 0 70.000000 46.000000"
 preserveAspectRatio="xMidYMid meet">
<metadata>
Created by potrace 1.16, written by Peter Selinger 2001-2019
</metadata>
<g transform="translate(0.000000,46.000000) scale(0.100000,-0.100000)"
fill="#000000" stroke="none">
<path d="M0 229 l0 -230 47 3 c47 3 48 3 56 45 4 22 15 44 23 47 20 8 54 -11
54 -29 0 -21 9 -19 28 6 17 20 17 20 67 -15 27 -20 58 -36 67 -36 10 0 18 -4
18 -10 0 -6 63 -10 170 -10 l170 0 0 128 c0 87 -3 122 -10 112 -6 -9 -13 -11
-17 -5 -5 6 -14 10 -20 11 -50 4 -49 4 -29 19 16 12 17 15 4 15 -10 0 -18 13
-22 35 -8 41 -2 55 24 55 27 0 34 17 10 23 -15 4 -20 14 -20 36 l0 31 -310 0
-310 0 0 -231z m543 149 c21 -6 41 -17 43 -22 18 -55 -6 -144 -52 -187 l-25
-23 17 45 c13 36 14 51 5 86 -6 23 -18 49 -27 57 -8 9 -12 21 -8 28 5 8 2 9
-10 5 -9 -4 -15 -3 -12 1 2 4 1 14 -4 22 -5 9 -4 20 3 28 9 12 13 11 21 -7 5
-12 26 -26 49 -33z m-89 -13 c-4 -8 -11 -15 -16 -15 -6 0 -5 6 2 15 7 8 14 15
16 15 2 0 1 -7 -2 -15z m-314 -35 c46 -23 48 -28 18 -39 -20 -7 -19 -9 21 -51
38 -39 40 -45 26 -59 -13 -14 -15 -13 -15 4 -1 18 -21 55 -31 55 -2 0 -5 -12
-6 -27 -1 -31 -26 -53 -60 -53 -26 0 -28 11 -12 43 9 18 9 20 -2 10 -7 -7 -17
-13 -22 -13 -16 0 16 31 40 41 26 10 31 34 8 43 -14 5 -23 66 -10 66 3 0 24
-9 45 -20z m90 -4 c0 -2 -7 -6 -15 -10 -8 -3 -15 -1 -15 4 0 6 7 10 15 10 8 0
15 -2 15 -4z m140 -66 c0 -5 -7 -10 -16 -10 -8 0 -12 5 -9 10 3 6 10 10 16 10
5 0 9 -4 9 -10z m-46 -20 c14 -5 26 -14 26 -20 0 -16 -15 -12 -41 10 -27 22
-22 25 15 10z m87 -4 c-16 -19 -51 -28 -44 -10 2 7 14 15 26 17 12 2 24 5 26
6 2 0 -2 -5 -8 -13z m190 -69 c-16 -16 -26 0 -10 19 9 11 15 12 17 4 2 -6 -1
-17 -7 -23z m-216 3 c-3 -5 -12 -10 -18 -10 -7 0 -6 4 3 10 19 12 23 12 15 0z
m-185 -50 c0 -5 -2 -10 -4 -10 -3 0 -8 5 -11 10 -3 6 -1 10 4 10 6 0 11 -4 11
-10z"/>
<path d="M636 452 c-10 -16 11 -34 33 -27 23 7 26 2 11 -24 -6 -13 -5 -24 5
-37 13 -17 14 -14 15 39 0 53 -11 74 -23 45 -4 -10 -6 -10 -6 0 -1 13 -27 17
-35 4z"/>
</g>
</svg>
